<?xml version="1.0" encoding="utf-8"?>
<!-- Generator: Adobe Illustrator 27.5.0, SVG Export Plug-In . SVG Version: 6.00 Build 0)  -->
<svg version="1.1" xmlns="http://www.w3.org/2000/svg" xmlns:xlink="http://www.w3.org/1999/xlink" x="0px" y="0px"
	 viewBox="0 0 3600 2850" style="enable-background:new 0 0 3600 2000;" xml:space="preserve">
<!--g id="Ñëîé_2">
	<g>
		<g>
			<rect x="0" style="fill:#FFFFFF;" width="3600" height="2000"/>
		</g>
	</g>
	<polygon style="fill:#97F9E3;" points="1800,2000 3600,2000 3600,0 2468,0 	"/>
	<polygon style="fill:#97F9E3;" points="873,2000 0,1379 0,2000 	"/>
</g-->
<g id="Layer_1">
	<g>
		
		<linearGradient id="SVGID_00000072281001983498304290000002878216165812190343_" gradientUnits="userSpaceOnUse" x1="2817.5491" y1="625.5046" x2="2790.9504" y2="886.4471">
			<stop  offset="0" style="stop-color:#53CD9F"/>
			<stop  offset="1" style="stop-color:#0D7A5C"/>
		</linearGradient>
		
		<rect x="2790.865" y="673.597" style="fill:url(#SVGID_00000072281001983498304290000002878216165812190343_);" width="30.825" height="124.962"/>
		
		<linearGradient id="SVGID_00000020373175756767986220000004201111031755124664_" gradientUnits="userSpaceOnUse" x1="3007.677" y1="619.7214" x2="3047.5752" y2="915.5179">
			<stop  offset="0" style="stop-color:#C9CD55"/>
			<stop  offset="0.5065" style="stop-color:#659C52"/>
			<stop  offset="1" style="stop-color:#287F50"/>
		</linearGradient>
		<polygon style="fill:url(#SVGID_00000020373175756767986220000004201111031755124664_);" points="2967.594,797.089 
			2967.594,772.54 3092.296,772.54 3092.296,797.089 		"/>
		
		<linearGradient id="SVGID_00000080895265028767305720000016429468426542310033_" gradientUnits="userSpaceOnUse" x1="3057.7686" y1="649.9917" x2="3031.1702" y2="910.9335">
			<stop  offset="0" style="stop-color:#53CD9F"/>
			<stop  offset="1" style="stop-color:#0D7A5C"/>
		</linearGradient>
		<polygon style="fill:url(#SVGID_00000080895265028767305720000016429468426542310033_);" points="2984.185,772.458 
			2984.185,747.91 3108.888,747.91 3108.888,772.458 		"/>
		
		<rect x="3008.454" y="673.819" transform="matrix(-1.836970e-16 1 -1 -1.836970e-16 3756.8984 -2284.5583)" style="fill:#EDFDFC;" width="24.549" height="124.702"/>
		<rect x="2825.815" y="623.262" style="fill:#EDFDFC;" width="31.521" height="173.451"/>
		
		<linearGradient id="SVGID_00000082369292319571687340000014511162953150432436_" gradientUnits="userSpaceOnUse" x1="2763.6621" y1="652.6354" x2="2803.5603" y2="948.4322">
			<stop  offset="0" style="stop-color:#C9CD55"/>
			<stop  offset="0.5065" style="stop-color:#659C52"/>
			<stop  offset="1" style="stop-color:#287F50"/>
		</linearGradient>
		
		<rect x="2758.171" y="642.38" style="fill:url(#SVGID_00000082369292319571687340000014511162953150432436_);" width="29.032" height="154.333"/>
		
		<linearGradient id="SVGID_00000141440021565987278590000014031421519679310508_" gradientUnits="userSpaceOnUse" x1="2892.8091" y1="635.2156" x2="2932.7073" y2="931.0125">
			<stop  offset="0" style="stop-color:#C9CD55"/>
			<stop  offset="0.5065" style="stop-color:#659C52"/>
			<stop  offset="1" style="stop-color:#287F50"/>
		</linearGradient>
		<polygon style="fill:url(#SVGID_00000141440021565987278590000014031421519679310508_);" points="2951.012,782.508 
			2924.922,795.271 2857.356,656.584 2883.446,643.821 		"/>
		<rect x="2735.131" y="795.837" style="fill:#B7D972;" width="498.627" height="14.117"/>
		<g transform="translate(170,-180)">
			<ellipse style="fill:#B7D972;" cx="1959.38" cy="582.051" rx="130.623" ry="130.896"/>
			<ellipse style="fill:#EDFDFC;" cx="1959.38" cy="582.052" rx="111.846" ry="112.079"/>
			<g>
				
				<rect x="1858.123" y="560.817" transform="matrix(6.123234e-17 -1 1 6.123234e-17 1278.2775 2441.1436)" style="fill:#B7D972;" width="3.175" height="41.232"/>
			
				<rect x="2057.717" y="560.817" transform="matrix(6.123234e-17 -1 1 6.123234e-17 1477.8707 2640.7368)" style="fill:#B7D972;" width="3.175" height="41.232"/>
				<rect x="1957.622" y="462.362" style="fill:#B7D972;" width="3.168" height="41.318"/>
				<rect x="1957.622" y="661.57" style="fill:#B7D972;" width="3.168" height="41.319"/>
				<ellipse style="fill:#B7D972;" cx="1959.38" cy="582.051" rx="3.413" ry="3.42"/>
				<g>
					<path style="fill:#B7D972;" d="M1959.379,583.581c-0.39,0-0.781-0.15-1.079-0.448l-61.329-61.457
						c-0.596-0.597-0.596-1.565,0-2.162c0.595-0.597,1.562-0.597,2.158,0l61.329,61.457c0.596,0.597,0.596,1.565,0,2.162
						C1960.161,583.431,1959.77,583.581,1959.379,583.581z"/>
				</g>
				<g>
					<path style="fill:#B7D972;" d="M1979.099,644.16c-0.254-0.128-0.459-0.352-0.555-0.644l-19.823-60.003
						c-0.193-0.583,0.123-1.212,0.705-1.405c0.581-0.193,1.21,0.123,1.402,0.706l19.823,60.003c0.193,0.583-0.123,1.212-0.705,1.405
						C1979.655,644.319,1979.353,644.288,1979.099,644.16z"/>
				</g>
			</g>
		</g>
		<g>
			
			<linearGradient id="SVGID_00000151530431243001320470000004514305112508915361_" gradientUnits="userSpaceOnUse" x1="3146.0476" y1="588.3937" x2="3139.6272" y2="808.063">
				<stop  offset="0" style="stop-color:#C9CD55"/>
				<stop  offset="0.5065" style="stop-color:#659C52"/>
				<stop  offset="1" style="stop-color:#287F50"/>
			</linearGradient>
			<path style="fill:url(#SVGID_00000151530431243001320470000004514305112508915361_);" d="M3170.941,713.843
				c-0.462-4.081-1.01-8.255-2.905-11.896c-2.303-4.428-6.349-7.623-9.884-11.143c-6.605-6.576-11.688-14.678-14.739-23.493
				c-2.359-6.816-3.535-14.078-6.785-20.516c-1.986-3.93-4.692-7.444-6.947-11.226c-5.329-8.938-8.23-19.502-15.457-26.983
				c-1.391,9.071,1.358,18.696,7.326,25.657c1.78,2.076,3.844,3.947,5.2,6.323c2.462,4.313,2.238,9.574,2.526,14.534
				c0.542,9.321,3.169,18.515,7.633,26.711c4.741,8.707,11.584,16.46,14.119,26.047c1.9,7.185,1.335,15.244,5.385,21.471
				c0.439,0.675,0.941,1.353,1.049,2.151c0.061,0.448-0.01,0.903-0.079,1.35c-0.091,0.578-0.181,1.157-0.272,1.735
				c-0.921,5.88-1.873,13.363,3.179,17.764c3.502,3.05,8.009,3.118,10.524-0.933c2.533-4.079,2.308-10.05,2.12-14.641
				C3172.62,729.11,3171.801,721.443,3170.941,713.843z"/>
			<path style="fill:#B7D972;" d="M3180.042,709.113c-1.965-6.807-5.017-13.29-6.546-20.209c-1.483-6.711-1.495-13.649-1.5-20.523
				c-0.005-7.531-0.01-15.063-0.016-22.596c-0.003-4.689-0.008-9.404-0.784-14.028c-1.667-9.95-6.838-19.15-7.714-29.201
				c-0.378-4.346,0.062-8.74-0.417-13.076c-0.273-2.477-0.909-5.006-2.055-7.204c-1.233-2.364-4.64-2.259-5.758,0.162
				c-2.512,5.442-4.105,11.325-3.091,17.156c0.609,3.497,2.124,6.759,3.255,10.124c5.037,14.983,2.363,31.57,6.26,46.891
				c1.176,4.625,2.955,9.16,3.162,13.928c0.496,11.411-8.028,21.836-7.245,33.231c0.64,9.343,7.358,17.075,10.177,26.004
				c1.578,4.998,1.916,10.334,3.607,15.295c1.314,3.855,4.368,8.536,9.115,7.366c4.505-1.111,3.144-4.788,2.943-8.301
				C3182.754,732.25,3183.395,720.722,3180.042,709.113z"/>
			
			<linearGradient id="SVGID_00000169537561242656714230000000972816637998280836_" gradientUnits="userSpaceOnUse" x1="3188.959" y1="589.6479" x2="3182.5388" y2="809.3164">
				<stop  offset="0" style="stop-color:#C9CD55"/>
				<stop  offset="0.5065" style="stop-color:#659C52"/>
				<stop  offset="1" style="stop-color:#287F50"/>
			</linearGradient>
			<path style="fill:url(#SVGID_00000169537561242656714230000000972816637998280836_);" d="M3190.355,715.351
				c-0.198-3.537-0.796-7.094-0.301-10.601c0.418-2.963,1.597-5.754,2.439-8.625c1.578-5.379,1.969-11.024,2.352-16.618
				c0.695-10.167,1.389-20.335,2.084-30.503c1.08-15.804,2.165-31.654,5.121-47.217c0.82-4.321,1.741-9.003-0.201-12.947
				c-0.409-0.832-1.215-1.714-2.098-1.437c-0.629,0.197-0.938,0.89-1.166,1.509c-6.46,17.555-8.901,36.455-16.111,53.714
				c-1.728,4.135-3.737,8.202-4.631,12.594c-1.074,5.273-0.483,10.72-0.345,16.1c0.198,7.716-0.552,15.491-2.683,22.909
				c-1.115,3.881-2.608,7.674-3.219,11.666c-0.761,4.977-0.122,10.047,0.355,15.06c0.917,9.637,1.227,19.332,0.93,29.009
				c-0.175,5.689,4.627,5.54,7.808,2.045c2.224-2.444,2.204-5.127,2.966-8.17C3186.156,733.852,3190.962,726.181,3190.355,715.351z"
				/>
			<path style="fill:#B7D972;" d="M3160.352,730.777c-4.246-6.823-12.706-10.702-15.42-18.269c-0.69-1.926-0.961-3.997-1.804-5.86
				c-1.874-4.138-6.134-6.477-10.323-8.381c-0.581-0.264-1.243,0.157-1.252,0.797l0,0c-0.013,1.017,0.469,1.988,1.311,2.556
				c3.227,2.172,5.679,5.493,6.771,9.235c1.293,4.435,0.732,9.296,2.34,13.626c1.35,3.636,4.129,6.607,5.435,10.259
				c1.193,3.338,1.068,6.985,1.629,10.486c0.561,3.501,2.116,7.216,5.331,8.697C3166.003,759.282,3163.096,735.185,3160.352,730.777
				z"/>
			
			<linearGradient id="SVGID_00000005983306478970130610000000994300006280672129_" gradientUnits="userSpaceOnUse" x1="3210.0374" y1="590.2645" x2="3203.6172" y2="809.9333">
				<stop  offset="0" style="stop-color:#C9CD55"/>
				<stop  offset="0.5065" style="stop-color:#659C52"/>
				<stop  offset="1" style="stop-color:#287F50"/>
			</linearGradient>
			<path style="fill:url(#SVGID_00000005983306478970130610000000994300006280672129_);" d="M3208.731,728.525
				c-0.181,3.299,0.323,6.757-0.968,9.797c-0.825,1.945-2.311,3.517-3.53,5.242c-4.282,6.056-5.834,14.637-12.414,18.047
				c-0.434,0.225-0.918,0.426-1.399,0.337c-0.674-0.126-1.116-0.775-1.387-1.407c-1.613-3.758,0.197-7.992,1.269-11.939
				c0.187-0.69,0.344-1.46,0.015-2.096c-0.363-0.698-1.188-1.001-1.752-1.55c-1.124-1.094-1.018-2.902-0.795-4.456
				c0.558-3.882,1.342-7.731,2.347-11.522c0.57-2.149,1.228-4.318,2.466-6.163c1.364-2.032,3.344-3.548,5.197-5.143
				c8.192-7.047,14.468-16.311,17.98-26.542c0.76-2.215,1.439-4.553,3.009-6.287c1.57-1.734,4.37-2.627,6.283-1.281
				c1.361,0.958-4.214,9.925-4.864,11c-1.857,3.073-1.882,5.747-2.932,9.159C3214.686,712.083,3209.222,719.567,3208.731,728.525z"
				/>
			<path style="fill:#B7D972;" d="M3202.246,732.34c1.217-3.147,2.444-6.334,2.845-9.685c0.446-3.725-0.146-7.534,0.49-11.231
				c0.818-4.753,3.589-8.933,4.961-13.557c0.99-3.339,1.234-6.846,1.828-10.278c1.702-9.813,6.315-19.401,4.991-29.272
				c-0.287-2.147-1.257-4.65-3.387-5.016c-1.929-0.332-3.685,1.432-4.187,3.328c-0.502,1.896-0.128,3.895,0.01,5.852
				c0.384,5.456-1.173,11.029-4.327,15.492c-3.031,4.288-7.428,7.517-10.155,12.005c-3.345,5.505-3.801,12.226-5.508,18.44
				c-3.395,12.358-11.909,23.139-13.461,35.862c-0.617,5.063,0.571,11.217,5.244,13.239
				C3195.105,763.368,3199.185,740.256,3202.246,732.34z"/>
			
			<linearGradient id="SVGID_00000028286637629557352740000002170313113984347804_" gradientUnits="userSpaceOnUse" x1="3144.324" y1="768.7649" x2="3210.759" y2="768.7649">
				<stop  offset="0" style="stop-color:#FB9A2B"/>
				<stop  offset="1" style="stop-color:#E65925"/>
			</linearGradient>
			<path style="fill:url(#SVGID_00000028286637629557352740000002170313113984347804_);" d="M3178.622,741.638h-2.162h-28.852
				c-2.12,0-3.685,1.984-3.194,4.051l11.306,47.673c0.351,1.483,1.674,2.53,3.194,2.53h17.546h2.162h17.546
				c1.521,0,2.844-1.047,3.195-2.53l11.305-47.673c0.49-2.067-1.074-4.051-3.195-4.051H3178.622z"/>
		</g>
		<rect x="1803.874" y="1258.883" style="fill:#EDFDFC;" width="63.767" height="13.04"/>
		<rect x="1905.841" y="1258.883" style="fill:#EDFDFC;" width="63.767" height="13.04"/>
		<rect x="2758.171" y="654.531" style="fill:#EDFDFC;" width="29.032" height="10.009"/>
		<rect x="2797.635" y="684.172" style="fill:#EDFDFC;" width="17.286" height="47.673"/>
		<rect x="2825.815" y="642.38" style="fill:#B7D972;" width="31.521" height="7.532"/>
		<rect x="2825.815" y="772.458" style="fill:#B7D972;" width="31.521" height="9.873"/>
		<g class='hero-img' transform='translate(-720,1000)'>
			<g>
				<polygon style="fill:#847D3D;" points="3293.979,1433.597 3310.943,1676.039 3302.461,1676.039 3275.602,1436.223 			"/>
				<polygon style="fill:#847D3D;" points="3115.808,1433.597 3098.845,1676.039 3107.326,1676.039 3134.185,1436.223 			"/>
				
				<linearGradient id="SVGID_00000018195101561522913390000003737441136301390991_" gradientUnits="userSpaceOnUse" x1="3130.9746" y1="1307.1963" x2="3373.0227" y2="1307.1963">
					<stop  offset="0" style="stop-color:#00503E"/>
					<stop  offset="1" style="stop-color:#023222"/>
				</linearGradient>
				<path style="fill:url(#SVGID_00000018195101561522913390000003737441136301390991_);" d="M3368.006,1171.312
					c0,0-135.596-4.018-144.371-3.391c-8.775,0.627-16.89,28.842-16.89,28.842s-39.608,146.95-38.819,150.992
					c0.789,4.042-36.952,98.737-36.952,98.737s32.555-0.866,33.996,0c1.44,0.866,125.901-10.682,127.63-11.837
					c1.729-1.155,8.067-22.807,8.355-23.963s9.796-85.457,9.796-85.457l4.897-46.481c0,0,18.727-39.88,19.015-40.005
					c0.288-0.125,17.575-35.059,18.727-36.791c1.152-1.733,19.014-21.076,19.59-22.808
					C3373.557,1177.42,3368.006,1171.312,3368.006,1171.312z"/>
				
				<linearGradient id="SVGID_00000114057915692727904310000016771211084837343395_" gradientUnits="userSpaceOnUse" x1="3130.9746" y1="1307.7238" x2="3373.0227" y2="1307.7238">
					<stop  offset="0" style="stop-color:#00503E"/>
					<stop  offset="1" style="stop-color:#023222"/>
				</linearGradient>
				<path style="opacity:0.3;fill:url(#SVGID_00000114057915692727904310000016771211084837343395_);" d="M3368.006,1171.312
					c0,0-46.749-1.385-87.124-2.401c15.692,9.234,24.491,35.06,17.96,81.002c-5.55,39.043-11.717,81.415-36.301,132.227
					c-12.663,26.17-67.183,11.512-111.87,14.101c-9.627,24.986-19.697,50.251-19.697,50.251s32.555-0.866,33.996,0
					c1.44,0.866,125.901-10.682,127.63-11.837c1.729-1.154,8.067-22.807,8.355-23.962s9.796-85.457,9.796-85.457l4.897-46.481
					c0,0,18.727-39.88,19.015-40.005c0.288-0.125,17.574-35.059,18.727-36.791c1.152-1.733,19.014-21.076,19.59-22.808
					C3373.557,1177.42,3368.006,1171.312,3368.006,1171.312z"/>
				<g>
					<g>
						
						<linearGradient id="SVGID_00000008836288272892185000000000328412082912840618_" gradientUnits="userSpaceOnUse" x1="3106.1841" y1="1315.535" x2="3377.4014" y2="1315.535">
							<stop  offset="0" style="stop-color:#C9CD55"/>
							<stop  offset="0.5065" style="stop-color:#659C52"/>
							<stop  offset="1" style="stop-color:#287F50"/>
						</linearGradient>
						<path style="fill:url(#SVGID_00000008836288272892185000000000328412082912840618_);" d="M3106.201,1451.667l-0.001-0.006
							c-0.288-4.635,3.207-8.633,7.831-8.947c14.489-0.983,45.824-3.226,78.053-6.283c61.779-5.861,84.114-10.659,92.108-13.166
							c2.759-0.866,4.88-3.107,5.586-5.917c2.168-8.634,3.439-26.558,4.502-41.55c4.035-56.896,10.689-150.715,69.145-202.226
							c3.647-3.214,9.263-2.64,12.224,1.217l0,0c2.697,3.513,2.236,8.534-1.091,11.455c-53.256,46.764-59.371,132.997-63.466,190.751
							c-2.336,32.923-3.777,49.083-10.968,56.602c-3.467,3.626-9.922,10.374-103.852,19.4c-33.323,3.2-66.125,5.551-81.105,6.568
							C3110.508,1459.881,3106.491,1456.338,3106.201,1451.667z M3288.344,1421.562L3288.344,1421.562L3288.344,1421.562z"/>
					</g>
				</g>
			</g>
			<g>
				
				<linearGradient id="SVGID_00000115478517477864124070000009525145286081279649_" gradientUnits="userSpaceOnUse" x1="1641.1737" y1="1034.5964" x2="2467.8611" y2="1034.5964">
					<stop  offset="0" style="stop-color:#00503E"/>
					<stop  offset="1" style="stop-color:#023222"/>
				</linearGradient>
				<path style="fill:url(#SVGID_00000115478517477864124070000009525145286081279649_);" d="M2452.126,1291.686h-795.218
					c-8.69,0-15.735-7.045-15.735-15.735V793.242c0-8.69,7.045-15.735,15.735-15.735h802.742c4.535,0,8.211,3.676,8.211,8.211
					v490.232C2467.861,1284.641,2460.817,1291.686,2452.126,1291.686z"/>
				
				<linearGradient id="SVGID_00000016753617535582772550000008282974939429990061_" gradientUnits="userSpaceOnUse" x1="2168.1216" y1="643.7188" x2="1944.3254" y2="1412.3323">
					<stop  offset="0" style="stop-color:#C9CD55"/>
					<stop  offset="0.5065" style="stop-color:#659C52"/>
					<stop  offset="1" style="stop-color:#287F50"/>
				</linearGradient>
				<path style="fill:url(#SVGID_00000016753617535582772550000008282974939429990061_);" d="M2449.735,1271.923h-790.849
					c-1.772,0-3.209-1.437-3.209-3.209V800.479c0-1.772,1.437-3.209,3.209-3.209h790.849c1.772,0,3.209,1.437,3.209,3.209v468.235
					C2452.944,1270.486,2451.507,1271.923,2449.735,1271.923z"/>
				
				<linearGradient id="SVGID_00000021100113608577975970000008455546441744244910_" gradientUnits="userSpaceOnUse" x1="1655.6769" y1="960.4835" x2="2452.9436" y2="960.4835">
					<stop  offset="0" style="stop-color:#C9CD55"/>
					<stop  offset="0.5065" style="stop-color:#659C52"/>
					<stop  offset="1" style="stop-color:#287F50"/>
				</linearGradient>
				<path style="opacity:0.5;fill:url(#SVGID_00000021100113608577975970000008455546441744244910_);" d="M2452.944,853.783v-51.026
					c0-3.03-2.043-5.487-4.563-5.487h-788.14c-2.521,0-4.563,2.457-4.563,5.487v320.94L2452.944,853.783z"/>
			</g>
			<g>
				<polygon style="fill:#FFC0BB;" points="1656.728,1018.487 1656.808,1024.99 1657.546,1041.155 1625.723,1036.967 
					1622.255,1032.251 1621.977,1019.967 1620.93,1008.462 1642.085,1008.462 			"/>
				<path style="fill:#FFC0BB;" d="M1686.064,1412.729c0,0,1.588,7.159,0,16.305c-1.587,9.147-42.86,226.679-42.86,226.679
					l21.783,3.181c0,0,71.081-202.023,75.05-215.544c3.969-13.521,8.334-32.61-5.159-47.325
					C1721.384,1381.312,1686.064,1412.729,1686.064,1412.729z"/>
				<path style="fill:#FFC0BB;" d="M1697.531,1662.001l-26.062-31.453l-26.062,10.828l6.527,9.024l28.389,14.277
					c0,0,12.135,2.437,12.763,2.265C1693.714,1666.769,1697.531,1662.001,1697.531,1662.001z"/>
				<path style="fill:#002A24;" d="M1697.531,1662.001l5.649,7.084c2.631,3.242-0.589,7.919-4.547,6.603l-54.688-18.182
					c-1.929-0.641-2.974-2.728-2.334-4.661l3.797-11.469C1677.982,1665.105,1691.732,1665.752,1697.531,1662.001z"/>
				<path style="fill:#473B1E;" d="M1607.39,931.182c0,0-13.61-8.926-29.098,0c-15.488,8.926-15.488,39.031-9.386,46.236
					c6.101,7.205-0.313,16.956,11.889,26.362c12.203,9.406,31.631,12.858,42.723,1.87c11.092-10.988,2.958-35.499,2.958-35.499
					L1607.39,931.182z"/>
				<path style="fill:#FFC0BB;" d="M1660.75,1663.489l-29.943-18.708l-26.01,15.579l9.03,6.505l31.431,4.594
					c0,0,12.284-1.517,12.825-1.878C1658.626,1669.219,1660.75,1663.489,1660.75,1663.489z"/>
				<path style="fill:#FFC0BB;" d="M1588.516,1392.103c0,0,4.287,103.662,4.684,121.558c0.397,17.896,9.524,150.722,13.493,162.255
					l22.224-1.59c0,0,15.159-257.168,10.397-282.222C1634.551,1367.049,1588.516,1392.103,1588.516,1392.103z"/>
				<path style="fill:#FFC0BB;" d="M1540.885,1307.43c-7.657-1.578-9.568,3.369-17.31,1.752l1.819,11.965
					c-1.039,2.327-3.362,8.543-3.362,8.543c-8.623,25.036-8.148,22.343-7.291,22.808c0.857,0.465,7.336-8.796,8.071-7.934
					c0.736,0.862-3.708,15.761-2.386,15.367c1.321-0.394,7.092-13.648,7.84-13.15c0.747,0.498-3.75,14.813-1.803,15.313
					c1.947,0.501,6.348-15.347,7.732-14.319c1.384,1.028-3.535,17.151-1.686,17.32c1.554,0.142,7.495-17.756,9.346-23.456
					c0.239-0.736,1.201-0.903,1.684-0.299c7.431,9.301,8.55,9.585,9.381,8.536c0.592-0.748-3.232-10.871-6.272-20.546l-4.038-11.792
					L1540.885,1307.43z"/>
				<path style="fill:#002A24;" d="M1660.75,1663.489l7.587,4.942c3.516,2.245,1.929,7.701-2.241,7.701h-57.619
					c-2.032,0-3.68-1.651-3.68-3.687v-12.084C1643.171,1672.603,1656.425,1668.879,1660.75,1663.489z"/>
				<path style="fill:#FFC0BB;" d="M1845.228,1031.288c0.148,0.722,1.036,0.998,1.557,0.478c4.035-4.027,16.814-16.615,18.07-15.82
					c1.493,0.947-9.651,12.474-8.923,13.947c0.728,1.473,11.316-10.047,12.749-8.777c1.434,1.27-8.572,11.449-8.153,12.195
					c0.418,0.747,11.044-7.979,12.334-7.739c1.29,0.24-8.922,10.938-8.671,11.987c0.251,1.05,9.748-3.984,10.273-3.218
					c0.526,0.766,1.004,1.19-17.138,18.663l-7.435,6.573l-8.963,2.083l-6.326-9.091c0,0,5.153-32.038,6.368-32.592
					C1842.128,1019.45,1842.953,1020.177,1845.228,1031.288z"/>
				<path style="fill:#473B1E;" d="M1603.215,1392.103l18.436,68.375c42.58-0.047,106.103-3.999,137.657-25.079
					c0,0-41.251-192.117-68.635-240.237l-94.055-5.17c0,0-65.224,91.044-17.601,269.206c0,0,8.143,0.601,21.138,0.979
					L1603.215,1392.103z"/>
				<path style="fill:#F99893;" d="M1683.527,967.327c-1.946,5.298-0.094,10.857,4.135,12.417c4.229,1.56,9.236-1.47,11.181-6.768
					c1.946-5.298,0.094-10.857-4.135-12.417C1690.479,958.999,1685.473,962.029,1683.527,967.327z"/>
				<path style="fill:#F99893;" d="M1620.586,1005.549c0,0,0.84,6.525,1.391,14.418c7.112,5.765,16.308,8.714,25.891,7.474
					c3.152-0.408,6.145-1.25,8.94-2.452c-0.222-5.147-0.145-9.92,0.649-12.205
					C1659.643,1006.499,1620.586,1005.549,1620.586,1005.549z"/>
				
				<linearGradient id="SVGID_00000054972934845746120600000008332147652770748065_" gradientUnits="userSpaceOnUse" x1="1915.4846" y1="1118.9015" x2="1283.3065" y2="998.5197">
					<stop  offset="0" style="stop-color:#C9CD55"/>
					<stop  offset="0.5065" style="stop-color:#659C52"/>
					<stop  offset="1" style="stop-color:#287F50"/>
				</linearGradient>
				<path style="fill:url(#SVGID_00000054972934845746120600000008332147652770748065_);" d="M1688.247,1038.786l89.105,67.628
					l57.051-58.636c0,0,17.066,13.193,17.066,12.949c0-0.245-53.638,83.8-66.803,88.198c-13.166,4.397-98.117-54.924-98.117-54.924
					L1688.247,1038.786z"/>
				<path style="fill:#FFC0BB;" d="M1683.08,997.943c1.221-2.298,2.236-4.727,3.029-7.258c2.266-6.807,3.281-13.987,3.671-20.231
					c0.084-1.34,0.244-2.672,0.43-4.002c0.75-5.369,0.536-11.026-0.914-16.803c-4.667-18.584-21.28-32.133-40.388-32.892
					c-25.742-1.023-46.272,20.018-45.41,45.131c-2.777-1.423-5.849-1.668-8.501-0.369c-5.089,2.492-6.695,9.679-3.587,16.054
					c3.108,6.375,9.753,9.522,14.842,7.031c0.707-0.346,1.339-0.79,1.908-1.303c2.906,21.293,20.944,37.185,41.888,36.116
					c10.242-0.523,19.379-5.016,26.132-11.978c0.454-0.408,0.928-0.884,1.425-1.435
					C1679.786,1003.584,1681.584,1000.851,1683.08,997.943z"/>
				<path style="fill:#333333;" d="M1643.889,967.885c0.115,2.263-1.622,4.191-3.881,4.307c-2.258,0.115-4.182-1.626-4.297-3.889
					c-0.115-2.263,1.622-4.191,3.881-4.307C1641.85,963.881,1643.774,965.623,1643.889,967.885z"/>
				<path style="fill:#333333;" d="M1677.496,967.885c0.115,2.263-1.622,4.191-3.881,4.307c-2.258,0.115-4.182-1.626-4.298-3.889
					c-0.115-2.263,1.623-4.191,3.881-4.307C1675.457,963.881,1677.381,965.623,1677.496,967.885z"/>
				<g>
					<g>
						<path style="fill:#F99893;" d="M1656.391,960.065c-0.024,1.323-0.038,2.643,0.014,3.962c0.035,1.317,0.112,2.632,0.241,3.938
							c0.141,1.303,0.312,2.604,0.63,3.862c0.306,1.252,0.732,2.5,1.471,3.489c0.097,0.117,0.181,0.249,0.292,0.351
							c0.108,0.11,0.199,0.209,0.333,0.339c0.125,0.123,0.252,0.244,0.363,0.382c0.118,0.131,0.229,0.268,0.328,0.416
							c0.413,0.574,0.713,1.25,0.81,1.966c0.218,1.441-0.367,2.883-1.285,3.898c-0.912,1.044-2.118,1.756-3.377,2.209
							c-1.269,0.443-2.602,0.647-3.922,0.638c0.656-0.079,1.305-0.19,1.942-0.34c0.636-0.157,1.255-0.369,1.848-0.633
							c1.186-0.515,2.278-1.261,3.072-2.243c0.788-0.972,1.256-2.225,1.037-3.423c-0.095-0.595-0.343-1.161-0.706-1.654
							c-0.086-0.126-0.184-0.245-0.288-0.359c-0.097-0.119-0.211-0.225-0.322-0.332l-0.364-0.364
							c-0.133-0.123-0.232-0.27-0.344-0.407c-0.423-0.567-0.729-1.192-0.979-1.828c-0.25-0.636-0.436-1.289-0.581-1.946
							c-0.291-1.315-0.45-2.645-0.525-3.975C1655.923,965.351,1656.048,962.69,1656.391,960.065z"/>
					</g>
				</g>
				<path style="fill:#B7D972;" d="M1700.086,1127.151c0.314-0.332,13.984-14.945,11.326-42.343
					c-1.443-14.869-9.1-28.449-15.889-37.844c-6.006-8.312-15.557-13.301-25.796-13.491c-18.697-0.347-48.54-0.757-48.54-0.757
					s-38.501-4.235-50.709,10.821c-12.208,15.056-53.526,119.51-55.874,169.384c-2.347,49.874,9.86,108.688,9.86,108.688
					s13.616,0.941,19.72,0c6.104-0.941-1.409-96.455,5.165-111.981c6.573-15.527,36.154-89.867,38.032-96.925l7.329,38.922
					c1.351,7.176,0.726,14.58-1.81,21.425c-6.219,16.787-18.222,49.042-23.055,60.995c0,0,92.436,14.903,137.98-7.682l-0.416-1.753
					C1699.835,1192.69,1697.414,1159.804,1700.086,1127.151z"/>
				<g>
					<g>
						<path style="fill:#473B1E;" d="M1647.332,961.045c-1.861-0.989-3.795-1.724-5.763-2.214c-1.973-0.472-3.987-0.647-5.968-0.458
							c-0.992,0.082-1.971,0.283-2.931,0.555c-0.485,0.123-0.952,0.304-1.428,0.467c-0.238,0.082-0.464,0.194-0.698,0.287
							c-0.234,0.095-0.47,0.186-0.694,0.304c-1.829,0.874-3.552,2.02-5.237,3.296c1.251-1.705,2.849-3.177,4.696-4.304
							c0.922-0.564,1.91-1.039,2.949-1.379c1.034-0.349,2.112-0.591,3.204-0.686c2.183-0.205,4.401,0.091,6.431,0.825
							c1.019,0.356,1.991,0.828,2.911,1.371C1645.716,959.664,1646.589,960.287,1647.332,961.045z"/>
					</g>
				</g>
				<g>
					<g>
						<path style="fill:#473B1E;" d="M1663.83,961.045c0.743-0.757,1.617-1.381,2.528-1.937c0.92-0.543,1.891-1.014,2.911-1.371
							c2.031-0.734,4.249-1.03,6.432-0.825c1.092,0.095,2.17,0.337,3.204,0.686c1.039,0.34,2.027,0.815,2.949,1.379
							c1.847,1.127,3.445,2.599,4.696,4.304c-1.685-1.276-3.408-2.422-5.237-3.296c-0.225-0.118-0.461-0.209-0.695-0.304
							c-0.234-0.093-0.46-0.206-0.698-0.287c-0.475-0.163-0.942-0.344-1.427-0.467c-0.96-0.272-1.939-0.473-2.931-0.555
							c-1.981-0.189-3.995-0.013-5.968,0.458C1667.625,959.321,1665.691,960.056,1663.83,961.045z"/>
					</g>
				</g>
				<path style="fill:#FFC0BB;" d="M1613.962,1032.251c0,0,29.409,37.346,35.667,50.828c0,0,17.263-22.701,18.018-49.758
					L1613.962,1032.251z"/>
				<path style="fill:#847D3D;" d="M1649.629,1083.079c0.793,12.956,1.293,25.927,1.579,38.901
					c0.175,6.487,0.221,12.977,0.306,19.466c0.026,6.49,0.035,12.98-0.017,19.47c-0.028,3.245-0.068,6.49-0.139,9.736
					c-0.07,3.245-0.107,6.49-0.203,9.734c-0.228,6.488-0.403,12.978-0.785,19.46c-0.687,12.964-1.67,25.933-3.546,38.78l0.326-4.857
					l0.365-4.849c0.195-3.236,0.329-6.477,0.496-9.712l0.131-2.427l0.089-2.429l0.177-4.858l0.19-4.856l0.126-4.859
					c0.375-12.955,0.563-25.919,0.664-38.882c0.147-12.964,0.154-25.93,0.18-38.899L1649.629,1083.079z"/>
				<path style="fill:#847D3D;" d="M1590.577,1100.404c-0.188,1.046-0.344,2.096-0.558,3.137c-0.229,1.038-0.424,2.081-0.697,3.108
					c-0.531,2.053-1.103,4.107-1.941,6.054c0.613-2.025,1.08-4.085,1.438-6.164c0.395-2.071,0.674-4.161,0.945-6.248
					c0.495-4.184,0.762-8.391,0.88-12.602l0.078-3.159l-0.019-3.161c0.037-2.109-0.105-4.215-0.135-6.325
					c-0.008-1.056-0.111-2.107-0.153-3.162l-0.158-3.165c-0.132-2.108-0.322-4.214-0.432-6.331c0.348,2.088,0.641,4.185,0.948,6.283
					c0.214,2.106,0.472,4.213,0.618,6.328l0.193,3.175c0.074,1.058,0.098,2.119,0.119,3.18l0.051,3.183L1590.577,1100.404z"/>
				<path style="fill:#473B1E;" d="M1687.731,927.215c-8.059-27.748-44.846-28.728-44.846-28.728
					c-56.893,3.953-47.933,53.964-46.054,62.238c1.646-0.383,3.911-0.334,6.667,1.164c1.158,0.629,2.095,1.294,2.857,1.962
					c6.702-2.047,8.732-13.197,12.201-18.569c4.707-7.29,25.449-3.527,33.321-8.701c7.872-5.173,8.677-13.168,8.677-13.168
					c30.347,4.821,29.876,36.958,29.876,36.958c1.313-0.294,2.933-0.151,2.933-0.151S1694.931,952.004,1687.731,927.215z"/>
				<path style="fill:#FFFFFF;" d="M1667.552,990.349c-1.035,4.263-5.993,7.534-11.993,7.599c-6.001,0.066-11.03-3.095-12.159-7.335
					L1667.552,990.349z"/>
			</g>
			
			<linearGradient id="SVGID_00000093886421214343211740000016464566389649978557_" gradientUnits="userSpaceOnUse" x1="3105.5681" y1="1032.2772" x2="3257.594" y2="1374.8505">
				<stop  offset="0" style="stop-color:#FB9A2B"/>
				<stop  offset="1" style="stop-color:#E65925"/>
			</linearGradient>
			<path style="fill:url(#SVGID_00000093886421214343211740000016464566389649978557_);" d="M3112.914,1114.74
				c6.826-26.615,17.693-37.168,36.584-47.102c14.468-7.609,31.564-10.059,49.099-4.379c35.754,11.582,44.98,50.774,48.592,71.037
				c12.315,69.083,70.086,127.845,49.064,175.12c-21.023,47.275-119.707,42.21-119.707,42.21l-45.262-32.618
				c0,0-4.016-79.416-4.03-85.899c-0.013-6.483-17.153-6.016-17.153-38.479C3110.101,1168.76,3104.885,1146.044,3112.914,1114.74z"/>
			<path style="fill:#FFC0BB;" d="M2993.055,1212.446c-0.065,0.802-0.992,1.218-1.624,0.723
				c-4.902-3.833-20.405-15.792-21.661-14.763c-1.494,1.223,12.097,12.247,11.501,13.939c-0.596,1.693-13.583-9.396-14.969-7.831
				c-1.387,1.565,10.792,11.278,10.438,12.142c-0.355,0.864-13.018-7.192-14.385-6.762c-1.367,0.43,11.106,10.678,10.972,11.848
				c-0.134,1.171-11.088-3.033-11.557-2.133c-0.469,0.9-0.932,1.421,21.024,17.967l8.921,6.144l9.987,1.076l5.663-10.686
				c0,0-9.791-34.043-11.181-34.484C2994.86,1199.207,2994.061,1200.104,2993.055,1212.446z"/>
			
			<linearGradient id="SVGID_00000114038676156897090620000005274918416681412256_" gradientUnits="userSpaceOnUse" x1="2921.7917" y1="1345.3875" x2="3172.1868" y2="1206.4319">
				<stop  offset="0" style="stop-color:#53CD9F"/>
				<stop  offset="1" style="stop-color:#0D7A5C"/>
			</linearGradient>
			<path style="fill:url(#SVGID_00000114038676156897090620000005274918416681412256_);" d="M3142.48,1196.851
				c0,0-76.509,86.789-79.737,87.171c-3.228,0.383-54.506-59.68-54.506-59.68s-18.377,15.298-21.57,20.597
				c0,0,54.785,91.321,68.854,96.501c14.07,5.181,107.499-82.975,107.499-82.975L3142.48,1196.851z"/>
			<g>
				<path style="fill:#F4A640;" d="M3133.555,1308.587l0.918,0.474c0,0,0.086-0.715,0.233-1.964
					C3134.32,1307.603,3133.936,1308.1,3133.555,1308.587z"/>
			</g>
			<path style="fill:#FFC0BB;" d="M3204.455,1197.685c-3.901,3.892-6.584,8.836-8.066,14.149
				c-5.21,18.673-22.594,79.276-29.92,83.404c-8.667,4.886-118.291,28.367-129.125,27.414c-10.835-0.953-21.034,9.862-23.202,18.186
				h40.19h2.788h140.769c0,0,36.76-45.282,40.862-92.94C3242.403,1205.452,3222.607,1179.577,3204.455,1197.685z"/>
			<path style="fill:#FFC0BB;" d="M3190.384,1162.305v30.635c0,1.702-0.972,3.254-2.51,3.975c-4.674,2.193-15.126,5.791-24.883,0.058
				c-1.317-0.774-2.094-2.225-2.094-3.755v-27.67L3190.384,1162.305z"/>
			<path style="fill:#F99893;" d="M3190.383,1178.712v-16.407l-29.488,3.244v13.919
				C3166.428,1181.146,3176.725,1182.823,3190.383,1178.712z"/>
			<path style="fill:#FFC0BB;" d="M3141.521,1157.067c-1.033-2.118-1.877-4.348-2.516-6.664c-1.839-6.233-2.536-12.763-2.694-18.428
				c-0.034-1.216-0.138-2.427-0.265-3.635c-0.512-4.884-0.143-9.998,1.35-15.182c4.801-16.676,20.26-28.423,37.58-28.514
				c23.333-0.124,41.263,19.563,39.703,42.269c2.558-1.202,5.347-1.328,7.707-0.07c4.53,2.414,5.76,8.971,2.749,14.644
				c-3.012,5.674-9.124,8.316-13.654,5.901c-0.629-0.335-1.187-0.757-1.686-1.238c-3.292,19.184-20.113,33.007-39.038,31.386
				c-9.256-0.793-17.386-5.145-23.283-11.657c-0.398-0.384-0.813-0.829-1.245-1.344
				C3144.327,1162.276,3142.785,1159.746,3141.521,1157.067z"/>
			<g>
				<path style="fill:#333333;" d="M3177.129,1132.755c-0.149,1.748,1.144,3.287,2.889,3.436c1.745,0.149,3.28-1.147,3.429-2.895
					s-1.144-3.286-2.889-3.436C3178.813,1129.711,3177.278,1131.007,3177.129,1132.755z"/>
				<path style="fill:#333333;" d="M3149.848,1132.214c-0.149,1.748,1.144,3.287,2.889,3.436c1.745,0.149,3.28-1.147,3.429-2.895
					c0.149-1.748-1.145-3.286-2.889-3.436C3151.532,1129.169,3149.998,1130.465,3149.848,1132.214z"/>
				
				<linearGradient id="SVGID_00000025431476260342943870000013345630771649668764_" gradientUnits="userSpaceOnUse" x1="3134.699" y1="1019.3497" x2="3286.7246" y2="1361.9225">
					<stop  offset="0" style="stop-color:#FB9A2B"/>
					<stop  offset="1" style="stop-color:#E65925"/>
				</linearGradient>
				<path style="fill:url(#SVGID_00000025431476260342943870000013345630771649668764_);" d="M3173.852,1126.151
					c1.602-0.503,3.123-0.889,4.635-1.109c1.509-0.222,2.992-0.246,4.436-0.046c1.433,0.216,2.873,0.558,4.241,1.225l0.531,0.217
					c0.177,0.076,0.334,0.187,0.51,0.271l1.044,0.547c0.7,0.379,1.347,0.853,2.125,1.231c-0.402-0.729-0.863-1.448-1.401-2.107
					c-0.603-0.585-1.153-1.279-1.896-1.733c-1.376-1.069-3.106-1.697-4.856-1.946c-1.762-0.242-3.57-0.02-5.191,0.586
					C3176.421,1123.91,3174.93,1124.836,3173.852,1126.151z"/>
				
				<linearGradient id="SVGID_00000153677399323530160820000014859652113536420762_" gradientUnits="userSpaceOnUse" x1="3109.7305" y1="1030.4292" x2="3261.7573" y2="1373.005">
					<stop  offset="0" style="stop-color:#FB9A2B"/>
					<stop  offset="1" style="stop-color:#E65925"/>
				</linearGradient>
				<path style="fill:url(#SVGID_00000153677399323530160820000014859652113536420762_);" d="M3161.084,1125.711
					c-0.986-1.386-2.408-2.413-3.971-3.145c-1.574-0.715-3.364-1.062-5.138-0.942c-1.763,0.128-3.532,0.635-4.978,1.608
					c-0.772,0.401-1.369,1.056-2.011,1.599c-0.582,0.62-1.092,1.306-1.542,2.005c0.802-0.324,1.48-0.751,2.204-1.082l1.079-0.474
					c0.181-0.071,0.345-0.172,0.527-0.235l0.545-0.18c1.41-0.571,2.87-0.813,4.315-0.93c1.453-0.1,2.932,0.026,4.422,0.351
					C3158.03,1124.609,3159.521,1125.099,3161.084,1125.711z"/>
				<path style="fill:#F99893;" d="M3167.048,1128.976c-1.299,1.575-2.453,3.253-3.527,4.983c-1.076,1.73-2.054,3.523-2.885,5.413
					c-0.395,0.955-0.767,1.926-0.985,2.999c-0.046,0.273-0.081,0.553-0.087,0.851c-0.004,0.149,0.015,0.314,0.027,0.469
					c0.042,0.174,0.06,0.339,0.156,0.523c0.048,0.091,0.101,0.182,0.155,0.267l0.139,0.159c0.094,0.103,0.182,0.212,0.28,0.307
					c0.2,0.182,0.395,0.373,0.605,0.532c0.822,0.674,1.717,1.195,2.629,1.663c0.919,0.455,1.856,0.864,2.831,1.171
					c-1.696-1.114-3.408-2.223-4.81-3.566c-0.179-0.164-0.328-0.346-0.487-0.52l-0.215-0.269l-0.104-0.132
					c-0.004-0.026-0.012-0.047-0.023-0.067c-0.094-0.212-0.04-0.719,0.067-1.149c0.218-0.908,0.575-1.837,0.973-2.743
					c0.778-1.828,1.693-3.622,2.584-5.431C3165.275,1132.632,3166.188,1130.827,3167.048,1128.976z"/>
			</g>
			<polygon style="fill:#FFC0BB;" points="3090.371,1603.744 3092.187,1649.159 3070.37,1649.31 3068.288,1606.423 		"/>
			<g>
				<path style="fill:#B7D972;" d="M3034.733,1675.242l62.703,0.424c1.371,0.009,2.473-1.072,2.46-2.414l-0.016-1.809
					c-0.011-1.343-1.132-2.439-2.503-2.448l-62.703-0.424c-1.372-0.01-2.473,1.071-2.461,2.414l0.017,1.809
					C3032.242,1674.137,3033.362,1675.232,3034.733,1675.242z"/>
				<path style="fill:#473B1E;" d="M3096.583,1648.727l2.405,18.566c0.297,2.29-0.992,4.358-2.708,4.346l-59.629-0.403
					c-1.548-0.011-3.088-0.967-3.917-2.753c-0.851-1.831-1.042-4.582,1.596-8.26c5.274-7.356,22.798-9.04,31.322-15.292l27.776,0.188
					C3094.98,1645.129,3096.315,1646.657,3096.583,1648.727z"/>
				<g>
					<path style="fill:#FFFFFF;" d="M3069.964,1655.732L3069.964,1655.732c0.429-0.257,0.58-0.967,0.326-1.51
						c-1.193-2.549-4.907-8.762-12.342-7.542c-0.429,0.071-0.716,0.628-0.638,1.206l0.002,0.019c0.076,0.559,0.467,0.928,0.882,0.861
						c6.664-1.07,9.823,4.406,10.788,6.542C3069.189,1655.764,3069.608,1655.945,3069.964,1655.732z"/>
				</g>
				<g>
					<path style="fill:#FFFFFF;" d="M3063.792,1658.078L3063.792,1658.078c0.429-0.257,0.58-0.967,0.326-1.51
						c-1.193-2.549-4.906-8.762-12.341-7.542c-0.43,0.071-0.717,0.628-0.639,1.206l0.003,0.018c0.076,0.559,0.467,0.928,0.882,0.861
						c6.664-1.07,9.823,4.405,10.788,6.541C3063.017,1658.11,3063.436,1658.291,3063.792,1658.078z"/>
				</g>
				<g>
					<path style="fill:#FFFFFF;" d="M3058.052,1660.267L3058.052,1660.267c0.428-0.257,0.58-0.967,0.326-1.51
						c-1.193-2.549-4.907-8.762-12.342-7.542c-0.43,0.071-0.716,0.628-0.638,1.206l0.003,0.019c0.076,0.559,0.467,0.928,0.882,0.861
						c6.663-1.071,9.823,4.405,10.788,6.541C3057.277,1660.299,3057.696,1660.48,3058.052,1660.267z"/>
				</g>
				<path style="opacity:0.3;fill:#45258F;" d="M3080.366,1671.531c4.565-14.954,12.649-16.555,17.075-16.179l1.547,11.941
					c0.297,2.29-0.992,4.358-2.708,4.346L3080.366,1671.531z"/>
			</g>
			<polygon style="fill:#FFC0BB;" points="2987.715,1603.744 2989.531,1647.192 2967.713,1647.343 2965.631,1606.423 		"/>
			<g>
				<path style="fill:#B7D972;" d="M2932.076,1675.242l62.703,0.424c1.371,0.009,2.472-1.072,2.46-2.414l-0.016-1.809
					c-0.011-1.343-1.133-2.439-2.503-2.448l-62.703-0.424c-1.37-0.01-2.472,1.071-2.46,2.414l0.015,1.809
					C2929.585,1674.137,2930.706,1675.232,2932.076,1675.242z"/>
				<path style="fill:#473B1E;" d="M2993.927,1648.727l2.405,18.566c0.297,2.29-0.992,4.358-2.708,4.346l-59.628-0.403
					c-1.549-0.011-3.089-0.967-3.917-2.753c-0.85-1.831-1.041-4.582,1.596-8.26c5.273-7.356,22.798-9.04,31.322-15.292l27.775,0.188
					C2992.323,1645.129,2993.659,1646.657,2993.927,1648.727z"/>
				<g>
					<path style="fill:#FFFFFF;" d="M2967.307,1655.732L2967.307,1655.732c0.428-0.257,0.58-0.967,0.326-1.51
						c-1.193-2.549-4.907-8.762-12.341-7.542c-0.43,0.071-0.717,0.628-0.638,1.206l0.003,0.019c0.076,0.559,0.466,0.928,0.882,0.861
						c6.663-1.07,9.823,4.406,10.789,6.542C2966.532,1655.764,2966.951,1655.945,2967.307,1655.732z"/>
				</g>
				<g>
					<path style="fill:#FFFFFF;" d="M2961.136,1658.078L2961.136,1658.078c0.428-0.257,0.579-0.967,0.325-1.51
						c-1.193-2.549-4.907-8.762-12.342-7.542c-0.43,0.071-0.716,0.628-0.638,1.206l0.003,0.018c0.075,0.559,0.466,0.928,0.882,0.861
						c6.663-1.07,9.822,4.405,10.788,6.541C2960.361,1658.11,2960.779,1658.291,2961.136,1658.078z"/>
				</g>
				<g>
					<path style="fill:#FFFFFF;" d="M2955.395,1660.267L2955.395,1660.267c0.429-0.257,0.58-0.967,0.326-1.51
						c-1.193-2.549-4.907-8.762-12.342-7.542c-0.429,0.071-0.716,0.628-0.638,1.206l0.002,0.019c0.076,0.559,0.467,0.928,0.882,0.861
						c6.663-1.071,9.823,4.405,10.788,6.541C2954.621,1660.299,2955.039,1660.48,2955.395,1660.267z"/>
				</g>
				<path style="opacity:0.3;fill:#45258F;" d="M2977.709,1671.531c4.565-14.954,12.649-16.555,17.076-16.179l1.547,11.941
					c0.297,2.29-0.992,4.358-2.708,4.346L2977.709,1671.531z"/>
			</g>
			<path style="fill:#473B1E;" d="M3077.941,1366.652c0,0-108.521,0.393-125.269,22.21c-16.747,21.817-29.475,169.163,0,233.607
				c0,0,38.184,1.343,46.893-4.028c0,0-2.68-108.748-1.34-137.613c1.34-28.865,21.436-32.893,24.116-35.578
				C3025.021,1442.564,3077.941,1366.652,3077.941,1366.652z"/>
			<path style="fill:#847D3D;" d="M3090.207,1524.754c-0.978-9.073-2.248-20.858-3.623-34.196l0,0
				c-2.457-26.195-5.551-41.897-2.269-41.579c26.145,2.532,97.254-10.167,139.259-18.375c25.557-4.994,40.185-32.879,28.822-56.356
				c-1.425-2.944-3.146-5.538-5.207-7.596c-19.612-19.588-60.098-13.301-60.052-16.042
				c-229.119,19.124-178.634,58.462-157.147,194.28l0,0c0.12,0.581,0.241,1.165,0.361,1.743l0,0
				c9.321,44.911,18.116,81.877,18.116,81.877s33.495,1.343,52.921-3.356C3101.41,1625.361,3095.349,1572.313,3090.207,1524.754z"/>
			
			<linearGradient id="SVGID_00000026878115306485606930000009638874759547874999_" gradientUnits="userSpaceOnUse" x1="3138.448" y1="1147.0597" x2="3227.1865" y2="1447.6702">
				<stop  offset="0" style="stop-color:#53CD9F"/>
				<stop  offset="1" style="stop-color:#0D7A5C"/>
			</linearGradient>
			<path style="fill:url(#SVGID_00000026878115306485606930000009638874759547874999_);" d="M3231.535,1192.289
				c-7.466-7.059-25.16-8.67-41.518-8.441c0.227,0.099,0.366,0.16,0.366,0.16c-14.353,15.978-29.488,1.872-29.488,1.872l0,0
				c-2.922,0.352-4.64,0.606-4.64,0.606s-10.861,5.16-22.591,19.73c-0.166,0.206-12.756,13.671-13.997,29.669
				c-0.885,11.4,13.739,28.048,13.739,34.562c0,6.514-6.741,53.734-6.741,53.734l2.545-0.316c-0.003,0.139-0.005,0.254-0.003,0.316
				c0.018,0.594-5.213,1.426-11.875,2.245c-0.294,8.438-0.443,13.688-0.443,13.688v16.467
				c87.188,14.476,139.406,38.905,139.406,38.905C3260.615,1225.439,3232.697,1193.388,3231.535,1192.289z"/>
			
			<linearGradient id="SVGID_00000106126792801248414300000014369410847878492095_" gradientUnits="userSpaceOnUse" x1="3211.4756" y1="1508.2252" x2="3167.4502" y2="1348.6333">
				<stop  offset="0" style="stop-color:#53CD9F"/>
				<stop  offset="1" style="stop-color:#0D7A5C"/>
			</linearGradient>
			<path style="fill:url(#SVGID_00000106126792801248414300000014369410847878492095_);" d="M3204.455,1197.685
				c-3.902,3.892-6.585,8.836-8.067,14.149c-5.21,18.673-22.594,79.276-29.92,83.404c-6.892,3.884-77.599,19.523-111.735,25.291
				c0,0,2.501,10.18,4.744,20.309h138.411c0,0,36.76-45.282,40.862-92.94C3242.403,1205.452,3222.607,1179.577,3204.455,1197.685z"/>
			
			<linearGradient id="SVGID_00000009569820098601113210000002544910192662625939_" gradientUnits="userSpaceOnUse" x1="2780.5308" y1="1272.106" x2="3075.791" y2="1272.106">
				<stop  offset="0" style="stop-color:#00503E"/>
				<stop  offset="1" style="stop-color:#023222"/>
			</linearGradient>
			<path style="fill:url(#SVGID_00000009569820098601113210000002544910192662625939_);" d="M2780.531,1210.864h164.984
				l46.779,114.419h79.474c2.223,0,4.024,1.806,4.024,4.032l0,0c0,2.227-1.801,4.032-4.024,4.032h-236.409L2780.531,1210.864z"/>
			<path style="fill:#DAEEF7;" d="M2862.34,1276.156c0.974,4.876,5.215,8.138,9.474,7.283c4.258-0.853,6.921-5.499,5.947-10.376
				c-0.974-4.877-5.215-8.138-9.474-7.283C2864.029,1266.634,2861.366,1271.279,2862.34,1276.156z"/>
			
			<linearGradient id="SVGID_00000093890345950783035860000003544407863991978677_" gradientUnits="userSpaceOnUse" x1="3135.5713" y1="1018.9623" x2="3287.5972" y2="1361.5355">
				<stop  offset="0" style="stop-color:#FB9A2B"/>
				<stop  offset="1" style="stop-color:#E65925"/>
			</linearGradient>
			<path style="fill:url(#SVGID_00000093890345950783035860000003544407863991978677_);" d="M3149.428,1081.354
				c0,0,44.314,40.904,65.25,45.559c0,0,2.789-31.716,2.518-32.802c-0.271-1.085-26.544-26.057-28.169-25.785
				c-1.625,0.271-49.297,7.057-49.297,7.057l-13.064,32.3L3149.428,1081.354z"/>
			
			<linearGradient id="SVGID_00000142858513905236157100000005251802245646699447_" gradientUnits="userSpaceOnUse" x1="3118.6538" y1="1026.4701" x2="3270.6787" y2="1369.0413">
				<stop  offset="0" style="stop-color:#FB9A2B"/>
				<stop  offset="1" style="stop-color:#E65925"/>
			</linearGradient>
			<path style="fill:url(#SVGID_00000142858513905236157100000005251802245646699447_);" d="M3124.29,1090.04l11.562,32.782
				c0,0,23.303-16.496,32.28-32.782c8.978-16.285-23.255-10.314-23.255-10.314L3124.29,1090.04z"/>
			<path style="opacity:0.5;fill:#F99893;" d="M3176.702,1153.894c0,0-4.392-1.234-8.235,1.697c0,0-4.55-2.424-7.799,0.429
				c0,0,2.052,6.388,9.179,5.444C3176.973,1160.52,3176.702,1153.894,3176.702,1153.894z"/>
			<path style="fill:#F99893;" d="M3180.288,1151.3c-0.764,0.715-1.563,1.379-2.414,1.971c-0.837,0.608-1.711,1.163-2.621,1.641
				c-1.816,0.956-3.752,1.677-5.762,1.99c-2.008,0.323-4.067,0.216-6.06-0.241c-1.989-0.488-3.895-1.332-5.71-2.369
				c0.823,0.646,1.698,1.231,2.625,1.736c0.926,0.508,1.918,0.887,2.928,1.22c1.019,0.302,2.073,0.5,3.14,0.576
				c1.067,0.063,2.141,0.013,3.2-0.142c2.112-0.349,4.137-1.13,5.939-2.245C3177.352,1154.325,3178.993,1152.953,3180.288,1151.3z"/>
			
			<g>
				<polygon style="fill:#847D3D;" points="2549.857,1433.271 2566.82,1675.714 2558.339,1675.714 2531.48,1435.897 			"/>
				<polygon style="fill:#847D3D;" points="2371.686,1433.271 2354.723,1675.714 2363.204,1675.714 2390.063,1435.897 			"/>
				
				<linearGradient id="SVGID_00000140012196181007303420000009964486754254720399_" gradientUnits="userSpaceOnUse" x1="2386.8518" y1="1306.8705" x2="2628.9004" y2="1306.8705">
					<stop  offset="0" style="stop-color:#00503E"/>
					<stop  offset="1" style="stop-color:#023222"/>
				</linearGradient>
				<path style="fill:url(#SVGID_00000140012196181007303420000009964486754254720399_);" d="M2623.884,1170.986
					c0,0-135.596-4.017-144.371-3.391c-8.775,0.627-16.89,28.842-16.89,28.842s-39.608,146.95-38.819,150.992
					s-36.952,98.736-36.952,98.736s32.556-0.866,33.996,0c1.441,0.866,125.901-10.682,127.63-11.837
					c1.729-1.154,8.067-22.808,8.355-23.962c0.288-1.155,9.795-85.456,9.795-85.456l4.898-46.481c0,0,18.727-39.879,19.015-40.005
					c0.288-0.125,17.575-35.058,18.727-36.791c1.152-1.732,19.014-21.075,19.59-22.808
					C2629.435,1177.094,2623.884,1170.986,2623.884,1170.986z"/>
				
				<linearGradient id="SVGID_00000114052397422293066730000002610978642124823684_" gradientUnits="userSpaceOnUse" x1="2386.8523" y1="1307.3982" x2="2628.9004" y2="1307.3982">
					<stop  offset="0" style="stop-color:#00503E"/>
					<stop  offset="1" style="stop-color:#023222"/>
				</linearGradient>
				<path style="opacity:0.3;fill:url(#SVGID_00000114052397422293066730000002610978642124823684_);" d="M2623.884,1170.986
					c0,0-46.748-1.385-87.124-2.402c15.692,9.234,24.491,35.061,17.96,81.003c-5.55,39.043-11.717,81.415-36.301,132.226
					c-12.663,26.171-67.183,11.512-111.87,14.101c-9.628,24.987-19.697,50.252-19.697,50.252s32.555-0.866,33.996,0
					c1.441,0.866,125.901-10.682,127.63-11.837s8.067-22.808,8.355-23.962c0.288-1.155,9.795-85.456,9.795-85.456l4.898-46.481
					c0,0,18.727-39.879,19.015-40.005c0.288-0.125,17.574-35.058,18.727-36.791c1.152-1.732,19.015-21.075,19.59-22.808
					C2629.435,1177.094,2623.884,1170.986,2623.884,1170.986z"/>
				<g>
					<g>
						
						<linearGradient id="SVGID_00000129207492142548550240000013420742116110559392_" gradientUnits="userSpaceOnUse" x1="2362.0618" y1="1315.2096" x2="2633.2793" y2="1315.2096">
							<stop  offset="0" style="stop-color:#C9CD55"/>
							<stop  offset="0.5065" style="stop-color:#659C52"/>
							<stop  offset="1" style="stop-color:#287F50"/>
						</linearGradient>
						<path style="fill:url(#SVGID_00000129207492142548550240000013420742116110559392_);" d="M2362.079,1451.341l-0.001-0.005
							c-0.288-4.636,3.207-8.633,7.831-8.947c14.489-0.984,45.825-3.226,78.053-6.283c61.779-5.861,84.114-10.659,92.108-13.167
							c2.759-0.866,4.88-3.106,5.586-5.916c2.168-8.635,3.439-26.557,4.502-41.55c4.035-56.896,10.689-150.715,69.145-202.226
							c3.647-3.215,9.262-2.641,12.224,1.217l0,0c2.697,3.513,2.236,8.533-1.091,11.455
							c-53.256,46.764-59.371,132.997-63.466,190.751c-2.336,32.923-3.777,49.082-10.968,56.602
							c-3.468,3.626-9.922,10.375-103.852,19.4c-33.323,3.201-66.124,5.551-81.105,6.568
							C2366.386,1459.555,2362.369,1456.012,2362.079,1451.341z M2544.221,1421.236L2544.221,1421.236L2544.221,1421.236z"/>
					</g>
				</g>
			</g>
			<polygon style="fill:#FFC0BB;" points="2253.152,1601.61 2248.017,1642.926 2220.37,1645.075 2220.798,1606.76 		"/>
			<g>
				<path style="fill:#EDFDFC;" d="M2178.36,1675.318l75.529,0.511c1.651,0.011,2.978-1.291,2.963-2.908l-0.019-2.179
					c-0.014-1.617-1.364-2.937-3.015-2.948l-75.53-0.511c-1.651-0.011-2.978,1.291-2.964,2.908l0.019,2.179
					C2175.359,1673.987,2176.709,1675.307,2178.36,1675.318z"/>
				
				<linearGradient id="SVGID_00000068638368003818910010000012295577255865640890_" gradientUnits="userSpaceOnUse" x1="2175.2725" y1="1654.8932" x2="2255.8101" y2="1654.8932">
					<stop  offset="0" style="stop-color:#FB9A2B"/>
					<stop  offset="1" style="stop-color:#E65925"/>
				</linearGradient>
				<path style="fill:url(#SVGID_00000068638368003818910010000012295577255865640890_);" d="M2252.862,1643.38l2.896,22.364
					c0.357,2.758-1.195,5.249-3.261,5.235l-71.826-0.485c-1.865-0.013-3.72-1.165-4.719-3.317c-1.024-2.206-1.254-5.519,1.923-9.949
					c6.352-8.86,27.462-10.889,37.729-18.421l33.458,0.227C2250.931,1639.046,2252.54,1640.886,2252.862,1643.38z"/>
				<g>
					<path style="fill:#EDFDFC;" d="M2220.798,1651.818L2220.798,1651.818c0.516-0.309,0.698-1.164,0.392-1.818
						c-1.437-3.071-5.911-10.554-14.866-9.084c-0.517,0.085-0.863,0.757-0.768,1.453l0.003,0.022
						c0.091,0.674,0.562,1.117,1.063,1.037c8.026-1.29,11.831,5.306,12.995,7.88
						C2219.865,1651.857,2220.368,1652.075,2220.798,1651.818z"/>
				</g>
				<g>
					<path style="fill:#EDFDFC;" d="M2213.363,1654.644L2213.363,1654.644c0.517-0.309,0.699-1.164,0.393-1.818
						c-1.437-3.071-5.91-10.555-14.866-9.084c-0.518,0.084-0.863,0.756-0.769,1.452l0.003,0.023c0.092,0.673,0.562,1.117,1.063,1.036
						c8.026-1.289,11.832,5.306,12.995,7.88C2212.431,1654.682,2212.934,1654.901,2213.363,1654.644z"/>
				</g>
				<g>
					<path style="fill:#EDFDFC;" d="M2206.449,1657.281L2206.449,1657.281c0.516-0.309,0.698-1.165,0.392-1.819
						c-1.437-3.071-5.911-10.554-14.866-9.084c-0.517,0.085-0.863,0.757-0.768,1.453l0.003,0.023
						c0.091,0.673,0.562,1.118,1.063,1.037c8.026-1.289,11.832,5.306,12.995,7.88
						C2205.516,1657.319,2206.02,1657.537,2206.449,1657.281z"/>
				</g>
				<path style="opacity:0.3;fill:#E87B50;" d="M2233.328,1670.849c5.499-18.013,15.237-19.942,20.569-19.488l1.863,14.383
					c0.357,2.758-1.195,5.249-3.261,5.235L2233.328,1670.849z"/>
			</g>
			<polygon style="fill:#F99893;" points="2380.752,1261.718 2376.185,1309.349 2394.336,1312.814 2404.329,1293.937 
				2402.691,1268.93 2388.574,1259.099 		"/>
			<path style="fill:#B7D972;" d="M2399.175,1186.65c0,0-18.423,48.041-18.423,75.068c0,0,9.657,6.346,23.577,4.614
				c13.919-1.732,2.219-56.586,2.74-58.029C2407.589,1206.859,2399.175,1186.65,2399.175,1186.65z"/>
			<polygon style="fill:#FFC0BB;" points="2295.594,1602.49 2283.372,1642.359 2255.236,1642.553 2260.136,1613.448 		"/>
			<path style="fill:#F99893;" d="M2458.292,1296.37l-33.821,51.11l-44.957-8.885l-76.304-57.041l13.384-19.837
				c0,0,71.495,42.944,77.578,44.146c6.083,1.202,22.669-37.635,22.669-37.635L2458.292,1296.37z"/>
			<path style="fill:#473B1E;" d="M2361.973,1355.461c0,0-117.496-3.715-144.192,21.551s-8.79,215.44-4.341,232.878
				c0,0,24.363,11.61,43.645,5.665c19.281-5.945,11.865-89.175,11.865-89.175s-2.225-79.514,0.742-90.661
				c2.966-11.147,43.753-19.321,43.753-19.321s63.034-43.844,59.326-43.844C2369.063,1372.553,2361.973,1355.461,2361.973,1355.461z"
				/>
			<g>
				<path style="fill:#EDFDFC;" d="M2214.821,1676.057l75.529,0.51c1.651,0.011,2.978-1.291,2.963-2.908l-0.019-2.179
					c-0.014-1.617-1.364-2.938-3.015-2.948l-75.53-0.51c-1.651-0.012-2.978,1.291-2.963,2.907l0.019,2.179
					C2211.821,1674.726,2213.17,1676.046,2214.821,1676.057z"/>
				
				<linearGradient id="SVGID_00000050625849447159285120000015838289224268354226_" gradientUnits="userSpaceOnUse" x1="2211.7336" y1="1655.6324" x2="2292.2717" y2="1655.6324">
					<stop  offset="0" style="stop-color:#FB9A2B"/>
					<stop  offset="1" style="stop-color:#E65925"/>
				</linearGradient>
				<path style="fill:url(#SVGID_00000050625849447159285120000015838289224268354226_);" d="M2289.324,1644.119l2.896,22.364
					c0.357,2.758-1.195,5.249-3.262,5.235l-71.825-0.485c-1.866-0.013-3.72-1.165-4.719-3.317c-1.024-2.206-1.254-5.519,1.922-9.949
					c6.352-8.86,27.461-10.889,37.729-18.42l33.457,0.226C2287.392,1639.786,2289.001,1641.626,2289.324,1644.119z"/>
				<g>
					<path style="fill:#EDFDFC;" d="M2257.259,1652.557L2257.259,1652.557c0.517-0.309,0.699-1.165,0.393-1.818
						c-1.437-3.071-5.91-10.554-14.866-9.085c-0.518,0.085-0.863,0.757-0.768,1.453l0.003,0.022c0.092,0.674,0.562,1.118,1.063,1.037
						c8.026-1.289,11.832,5.306,12.995,7.88C2256.326,1652.595,2256.83,1652.814,2257.259,1652.557z"/>
				</g>
				<g>
					<path style="fill:#EDFDFC;" d="M2249.825,1655.382L2249.825,1655.382c0.516-0.309,0.698-1.164,0.392-1.818
						c-1.437-3.071-5.911-10.555-14.866-9.084c-0.517,0.085-0.863,0.757-0.768,1.453l0.003,0.023
						c0.091,0.673,0.562,1.117,1.063,1.037c8.026-1.289,11.831,5.306,12.995,7.88
						C2248.892,1655.422,2249.395,1655.64,2249.825,1655.382z"/>
				</g>
				<g>
					<path style="fill:#EDFDFC;" d="M2242.91,1658.02L2242.91,1658.02c0.517-0.309,0.699-1.165,0.392-1.818
						c-1.437-3.071-5.911-10.554-14.866-9.084c-0.517,0.085-0.863,0.757-0.768,1.453l0.003,0.023
						c0.092,0.673,0.562,1.118,1.063,1.037c8.027-1.289,11.832,5.306,12.995,7.88
						C2241.978,1658.058,2242.481,1658.276,2242.91,1658.02z"/>
				</g>
				
				<linearGradient id="SVGID_00000133501175089308040990000001822405440302122932_" gradientUnits="userSpaceOnUse" x1="2269.7886" y1="1661.8807" x2="2292.2717" y2="1661.8807">
					<stop  offset="0" style="stop-color:#FB9A2B"/>
					<stop  offset="1" style="stop-color:#E65925"/>
				</linearGradient>
				<path style="opacity:0.3;fill:url(#SVGID_00000133501175089308040990000001822405440302122932_);" d="M2269.789,1671.588
					c5.5-18.013,15.237-19.942,20.569-19.489l1.863,14.383c0.357,2.758-1.195,5.249-3.261,5.235L2269.789,1671.588z"/>
			</g>
			<path style="fill:#847D3D;" d="M2535.89,1395.094c-3.841-35.8-46.244-36.377-46.244-36.377l-22.811-1.984l-0.554-4.844
				c0,0-157.287-18.722-178.793,52.618c-21.505,71.34-37.82,212.534-37.82,212.534s20.764,12.633,48.944,0
				c0,0,39.858-151.597,54.784-166.46c14.925-14.862,122.185-17.31,122.185-17.31S2539.732,1430.893,2535.89,1395.094z"/>
			<path style="fill:#EDFDFC;" d="M2388.574,1332.157c0,0,3.71-130.494,10.601-145.507c6.89-15.013,31.271-17.9,31.271-17.9
				s63.558-9.442,80.072,6.172c1.236,1.168,29.968,39.301,25.374,220.172c0,0-54.579-30.025-147.317-45.422V1332.157z"/>
			<path style="fill:#FFC0BB;" d="M2466.746,1142.836v32.585c0,1.81-1.034,3.461-2.67,4.228c-4.972,2.333-16.089,6.159-26.468,0.062
				c-1.4-0.823-2.227-2.367-2.227-3.994v-29.432L2466.746,1142.836z"/>
			<path style="fill:#F99893;" d="M2466.746,1167.863v-17.451l-31.365,3.45v14.806
				C2441.266,1170.453,2452.219,1172.236,2466.746,1167.863z"/>
			
			<linearGradient id="SVGID_00000075161759650178223860000013651657536800187789_" gradientUnits="userSpaceOnUse" x1="2058.5601" y1="1320.6083" x2="2233.3423" y2="1320.6083">
				<stop  offset="0" style="stop-color:#FB9A2B"/>
				<stop  offset="1" style="stop-color:#E65925"/>
			</linearGradient>
			
				<rect x="2058.56" y="1308.483" style="fill:url(#SVGID_00000075161759650178223860000013651657536800187789_);" width="174.782" height="24.251"/>
			<rect x="2037.433" y="1284.232" style="fill:#B7D972;" width="174.782" height="24.251"/>
			
			<linearGradient id="SVGID_00000180335614367169391610000002897031118478256017_" gradientUnits="userSpaceOnUse" x1="2269.2341" y1="1237.7598" x2="2337.1045" y2="1237.7598">
				<stop  offset="0" style="stop-color:#FB9A2B"/>
				<stop  offset="1" style="stop-color:#E65925"/>
			</linearGradient>
			<path style="fill:url(#SVGID_00000180335614367169391610000002897031118478256017_);" d="M2330.655,1243.846l-18.789-51.938
				c-0.711-1.968-2.971-2.88-4.845-1.957l-35.559,17.513c-1.912,0.942-2.747,3.224-1.895,5.181l30.759,70.623
				c0.938,2.153,3.389,3.199,5.588,2.384l31.19-11.56L2330.655,1243.846z"/>
			<path style="fill:#FFC0BB;" d="M2298.837,1247.562c0.015-0.14,0.037-0.275,0.071-0.405c0.875-3.382,1.835-3.797,2.475-3.792
				c-0.115-0.546-0.111-1.058,0.041-1.522c1.589-4.832,3.405-0.451,3.405-0.451c4.509,6.71,18.445,12.731,18.445,12.731l4.758,1.035
				c-0.236-0.795,2.624-11.312,2.624-11.312s9.941,18.058,10.036,18.273c0.316,0.831-4.927,8.218-7.13,10.645
				c-2.19,2.434-6.498,8.326-6.772,8.791c0,0-10.327-6.57-14.025-9.794c-4.3-3.557-11.041-9.27-13.683-12.247
				c-1.905-2.145-1.978-4.276-1.534-5.928C2296.414,1251.297,2297.563,1249.091,2298.837,1247.562z"/>
			<g>
				<path style="fill:#F99893;" d="M2298.907,1247.295c0.198,1.354,0.748,2.638,1.406,3.839c0.661,1.206,1.504,2.303,2.425,3.322
					c0.949,0.992,1.975,1.911,3.1,2.691c0.55,0.406,1.149,0.741,1.719,1.11c0.602,0.32,1.208,0.633,1.82,0.923
					c-1.114-0.784-2.227-1.541-3.264-2.398c-1.04-0.851-2.027-1.757-2.941-2.732c-0.906-0.982-1.734-2.034-2.469-3.152
					C2299.98,1249.774,2299.341,1248.583,2298.907,1247.295z"/>
				<path style="fill:#F99893;" d="M2297.525,1253.588c0.303,1.335,0.953,2.571,1.704,3.716c0.754,1.151,1.681,2.178,2.679,3.121
					c1.024,0.914,2.119,1.749,3.302,2.438c0.58,0.361,1.203,0.647,1.801,0.971c0.626,0.272,1.254,0.535,1.887,0.777
					c-1.171-0.693-2.341-1.36-3.442-2.133c-1.103-0.766-2.159-1.591-3.147-2.49c-0.981-0.907-1.889-1.89-2.709-2.947
					C2298.791,1255.975,2298.06,1254.838,2297.525,1253.588z"/>
				<path style="fill:#F99893;" d="M2301.383,1243.366c0.198,1.355,0.748,2.638,1.406,3.839c0.661,1.207,1.505,2.304,2.425,3.322
					c0.948,0.993,1.975,1.911,3.1,2.692c0.55,0.406,1.148,0.74,1.719,1.109c0.602,0.321,1.208,0.633,1.82,0.923
					c-1.114-0.783-2.227-1.54-3.264-2.398c-1.04-0.851-2.027-1.756-2.941-2.731c-0.906-0.982-1.734-2.034-2.47-3.152
					C2302.457,1245.845,2301.817,1244.654,2301.383,1243.366z"/>
			</g>
			<path style="fill:#FFC0BB;" d="M2481.869,1296.37l-33.821,51.11l-44.956-8.885l-76.304-57.041l13.384-19.837
				c0,0,71.495,42.944,77.578,44.146c6.083,1.202,22.67-37.635,22.67-37.635L2481.869,1296.37z"/>
			<path style="fill:#B7D972;" d="M2510.861,1209.686c-3.696,20.272-13.4,67.217-27.425,88.893c0,0-33.92-2.481-53.02-25.677
				c0,0,26.107-64.504,32.922-77.723c5.477-10.624,31.883-42.209,44.94-10.873
				C2511.615,1192.314,2512.417,1201.151,2510.861,1209.686z"/>
			<g>
				<rect x="2037.433" y="1349.671" style="fill:#473B1E;" width="11.908" height="326.043"/>
				<rect x="2149.792" y="1349.671" style="fill:#473B1E;" width="11.908" height="326.043"/>
				<rect x="2489.646" y="1349.671" style="fill:#473B1E;" width="11.909" height="326.043"/>
				<rect x="2602.006" y="1349.671" style="fill:#473B1E;" width="11.908" height="326.043"/>
				<path style="fill:#B7D972;" d="M2642.198,1353.521h-631.404c-2.896,0-5.245-2.348-5.245-5.245v-10.297
					c0-2.896,2.348-5.245,5.245-5.245h631.404c2.897,0,5.245,2.349,5.245,5.245v10.297
					C2647.443,1351.172,2645.095,1353.521,2642.198,1353.521z"/>
			</g>
			<g>
				<path style="fill:#473B1E;" d="M2494.52,1114.712c0,0,10.85-38.857-10.204-54.582c-21.055-15.726-44.13-15.163-60.189-7.079
					c-16.059,8.083-26.801,38.379-20.554,56.268l52.75-14.34L2494.52,1114.712z"/>
				<path style="fill:#F99893;" d="M2413.962,1114.31c1.936,5.032,0.248,10.369-3.769,11.921s-8.843-1.269-10.779-6.301
					c-1.936-5.032-0.249-10.369,3.768-11.921C2407.2,1106.457,2412.026,1109.278,2413.962,1114.31z"/>
				<path style="fill:#FFC0BB;" d="M2414.835,1143.547c-1.199-2.177-2.205-4.482-2.998-6.889c-2.264-6.469-3.338-13.311-3.802-19.27
					c-0.099-1.279-0.272-2.548-0.469-3.816c-0.794-5.117-0.673-10.524,0.629-16.063c4.186-17.819,19.856-31.004,38.096-32.009
					c24.573-1.355,44.489,18.443,44.032,42.442c2.631-1.4,5.563-1.679,8.115-0.478c4.897,2.305,6.535,9.147,3.66,15.281
					c-2.876,6.134-9.177,9.238-14.074,6.933c-0.681-0.32-1.291-0.735-1.842-1.216c-2.465,20.38-19.462,35.824-39.482,35.11
					c-9.791-0.349-18.583-4.507-25.135-11.057c-0.439-0.384-0.9-0.831-1.382-1.35
					C2418.064,1148.886,2416.307,1146.302,2414.835,1143.547z"/>
				<path style="fill:#F99893;" d="M2439.379,1106.559c-0.276,2.376-0.486,4.699-0.797,6.967c-0.332,2.215-0.77,4.576-1.791,6.072
					l-0.198,0.235c-0.075,0.088-0.095,0.137-0.247,0.294c-0.236,0.281-0.512,0.51-0.7,0.845c-0.413,0.618-0.724,1.354-0.8,2.132
					c-0.184,1.571,0.53,3.05,1.494,3.998c1.972,1.962,4.705,2.359,7.025,1.985c-2.286-0.602-4.443-1.586-5.613-3.211
					c-0.537-0.804-0.865-1.681-0.661-2.458c0.076-0.386,0.24-0.757,0.498-1.096c0.094-0.185,0.294-0.325,0.428-0.496l0.33-0.369
					l0.371-0.435c0.848-1.209,1.191-2.476,1.436-3.708c0.219-1.24,0.302-2.455,0.286-3.667
					C2440.406,1111.232,2440.09,1108.852,2439.379,1106.559z"/>
				<path style="fill:#333333;" d="M2452.882,1110.847c-0.072,2.01,1.496,3.697,3.502,3.769c2.005,0.072,3.689-1.5,3.761-3.51
					c0.072-2.01-1.497-3.697-3.502-3.769C2454.637,1107.266,2452.953,1108.837,2452.882,1110.847z"/>
				<path style="fill:#333333;" d="M2421.623,1111.783c-0.072,2.01,1.496,3.697,3.502,3.769c2.005,0.071,3.689-1.5,3.761-3.51
					c0.071-2.01-1.497-3.697-3.502-3.768C2423.378,1108.202,2421.694,1109.773,2421.623,1111.783z"/>
				<path style="fill:#473B1E;" d="M2449.011,1102.275c1.891-0.418,3.662-0.71,5.4-0.835c1.736-0.123,3.419-0.03,5.039,0.305
					c1.609,0.353,3.218,0.839,4.732,1.686c0.814,0.329,1.501,0.886,2.318,1.309c0.781,0.474,1.494,1.054,2.374,1.531
					c-0.387-0.88-0.851-1.747-1.408-2.554c-0.626-0.74-1.217-1.566-2.028-2.158c-1.492-1.345-3.436-2.208-5.434-2.628
					c-2.011-0.412-4.112-0.287-6.016,0.301C2452.094,1099.836,2450.323,1100.818,2449.011,1102.275z"/>
				<path style="fill:#473B1E;" d="M2432.909,1102.755c-1.355-1.416-3.156-2.344-5.068-2.888c-1.921-0.529-4.024-0.59-6.023-0.116
					c-1.983,0.481-3.9,1.403-5.351,2.793c-0.792,0.616-1.357,1.46-1.96,2.218c-0.533,0.823-0.97,1.705-1.329,2.596
					c0.865-0.503,1.56-1.105,2.326-1.603c0.803-0.448,1.473-1.026,2.277-1.38c1.488-0.893,3.081-1.428,4.679-1.831
					c1.609-0.385,3.289-0.529,5.028-0.46C2429.228,1102.157,2431.006,1102.395,2432.909,1102.755z"/>
				<path style="fill:#473B1E;" d="M2489.698,1108.48c2.479-1.966,4.303-1.733,4.303-1.733l-0.531-12.745l-3.605-7.821
					c0,0-14.533-21.258-15.055-21.792c-0.521-0.535-12.005-7.703-12.714-8.077c-0.71-0.373-17.311,1.403-17.311,1.403
					s-28.745-7.201-24.51,8.21c4.235,15.411,25.068,24.301,26.186,23.672c-3.292-3.555-3.226-13.247-3.226-13.247
					C2457.524,1093.299,2485.36,1106.489,2489.698,1108.48z"/>
				<path style="fill:#FFFFFF;" d="M2429.157,1133.791c0.642,4.593,4.729,8.302,9.903,8.64c5.175,0.339,9.701-2.806,10.925-7.277
					L2429.157,1133.791z"/>
			</g>
			
			<linearGradient id="SVGID_00000173871204012048562200000007844903818576863360_" gradientUnits="userSpaceOnUse" x1="2462.481" y1="1343.1272" x2="2647.4429" y2="1343.1272">
				<stop  offset="0" style="stop-color:#53CD9F"/>
				<stop  offset="1" style="stop-color:#0D7A5C"/>
			</linearGradient>
			<path style="opacity:0.5;fill:url(#SVGID_00000173871204012048562200000007844903818576863360_);" d="M2642.198,1353.521h-174.472
				c-2.896,0-5.245-2.348-5.245-5.245v-10.297c0-2.896,2.348-5.245,5.245-5.245h174.472c2.897,0,5.245,2.349,5.245,5.245v10.297
				C2647.443,1351.172,2645.095,1353.521,2642.198,1353.521z"/>
			<rect x="2045.731" y="1287.985" style="fill:#847D3D;" width="82.686" height="16.168"/>
			<rect x="2187.478" y="1308.483" style="fill:#EDFDFC;" width="8.932" height="24.251"/>
			
			<linearGradient id="SVGID_00000034081857320193569950000013442750511780835232_" gradientUnits="userSpaceOnUse" x1="1337.0004" y1="1684.8726" x2="3455.2786" y2="1684.8726">
				<stop  offset="0" style="stop-color:#53CD9F"/>
				<stop  offset="1" style="stop-color:#0D7A5C"/>
			</linearGradient>
			<path style="fill:url(#SVGID_00000034081857320193569950000013442750511780835232_);" d="M3446.428,1693.741H1345.851
				c-4.888,0-8.851-3.963-8.851-8.851v-0.035c0-4.888,3.962-8.851,8.851-8.851h2100.577c4.888,0,8.851,3.962,8.851,8.851v0.035
				C3455.279,1689.778,3451.315,1693.741,3446.428,1693.741z"/>
			<rect x="2761.387" y="1349.671" style="fill:#473B1E;" width="11.908" height="326.043"/>
			<rect x="2873.747" y="1349.671" style="fill:#473B1E;" width="11.908" height="326.043"/>
			<rect x="3213.6" y="1349.671" style="fill:#473B1E;" width="11.909" height="326.043"/>
			<rect x="3325.961" y="1349.671" style="fill:#473B1E;" width="11.907" height="326.043"/>
			<path style="fill:#B7D972;" d="M3366.152,1353.521h-631.404c-2.896,0-5.245-2.348-5.245-5.245v-10.297
				c0-2.896,2.348-5.245,5.245-5.245h631.404c2.897,0,5.245,2.349,5.245,5.245v10.297
				C3371.397,1351.172,3369.049,1353.521,3366.152,1353.521z"/>
			
			<linearGradient id="SVGID_00000029746382727607965990000009465286932024021148_" gradientUnits="userSpaceOnUse" x1="3185.655" y1="1343.1272" x2="3370.6169" y2="1343.1272">
				<stop  offset="0" style="stop-color:#53CD9F"/>
				<stop  offset="1" style="stop-color:#0D7A5C"/>
			</linearGradient>
			<path style="opacity:0.5;fill:url(#SVGID_00000029746382727607965990000009465286932024021148_);" d="M3365.372,1353.521H3190.9
				c-2.896,0-5.245-2.348-5.245-5.245v-10.297c0-2.896,2.348-5.245,5.245-5.245h174.472c2.897,0,5.245,2.349,5.245,5.245v10.297
				C3370.617,1351.172,3368.269,1353.521,3365.372,1353.521z"/>
		</g>
		
	</g>
</g>
</svg>
